<?xml version="1.0" encoding="UTF-8"?>
<svg width="24px" height="24px" viewBox="0 0 72 72" version="1.1" xmlns="http://www.w3.org/2000/svg" xmlns:xlink="http://www.w3.org/1999/xlink">
    <title>Filled / Page / page_emoji</title>
    <g id="Filled-/-Page-/-page_emoji" stroke="none" fill="none" fill-rule="nonzero">
        <path d="M36,7 C52.0162577,7 65,19.9837423 65,36 C65,52.0162577 52.0162577,65 36,65 C19.9837423,65 7,52.0162577 7,36 C7,19.9837423 19.9837423,7 36,7 Z M36,12 C22.745166,12 12,22.745166 12,36 C12,49.254834 22.745166,60 36,60 C49.254834,60 60,49.254834 60,36 C60,22.745166 49.254834,12 36,12 Z M47.627966,41.0839774 C48.6950639,41.8227375 48.9612343,43.2866746 48.2224742,44.3537725 C44.9998413,49.0086867 40.8738471,51.4467742 36,51.4467742 C31.1261529,51.4467742 27.0001587,49.0086867 23.7775258,44.3537725 C23.0387657,43.2866746 23.3049361,41.8227375 24.372034,41.0839774 C25.4391319,40.3452173 26.903069,40.6113877 27.6418291,41.6784856 C30.0320993,45.1310982 32.7663203,46.7467742 36,46.7467742 C39.2336797,46.7467742 41.9679007,45.1310982 44.3581709,41.6784856 C45.096931,40.6113877 46.5608681,40.3452173 47.627966,41.0839774 Z M27.1129032,27.1129032 C28.9211904,27.1129032 30.3870968,28.99764 30.3870968,31.3225806 C30.3870968,33.6475213 28.9211904,35.5322581 27.1129032,35.5322581 C25.3046161,35.5322581 23.8387097,33.6475213 23.8387097,31.3225806 C23.8387097,28.99764 25.3046161,27.1129032 27.1129032,27.1129032 Z M44.8870968,27.1129032 C46.6953839,27.1129032 48.1612903,28.99764 48.1612903,31.3225806 C48.1612903,33.6475213 46.6953839,35.5322581 44.8870968,35.5322581 C43.0788096,35.5322581 41.6129032,33.6475213 41.6129032,31.3225806 C41.6129032,28.99764 43.0788096,27.1129032 44.8870968,27.1129032 Z" id="Shape" fill="#FFFFFF"></path>
    </g>
</svg>