<?xml version="1.0" encoding="UTF-8"?>
<svg width="24px" height="24px" viewBox="0 0 72 72" version="1.1" xmlns="http://www.w3.org/2000/svg" xmlns:xlink="http://www.w3.org/1999/xlink">
    <title>Filled / Page / page_italic</title>
    <g id="Filled-/-Page-/-page_italic" stroke="none" fill="none" fill-rule="nonzero">
        <path d="M36.265,50.655 C36.265,51.095 36.3475,51.4341667 36.5125,51.6725 C36.6775,51.9108333 36.8883333,52.03 37.145,52.03 C37.5483333,52.03 37.9608333,51.9108333 38.3825,51.6725 C38.8041667,51.4341667 39.3266667,51.0216667 39.95,50.435 L40.665,51.865 C40.115,52.635 39.2716667,53.4416667 38.135,54.285 C36.9983333,55.1283333 35.66,55.55 34.12,55.55 C32.8366667,55.55 31.8558333,55.2566667 31.1775,54.67 C30.4991667,54.0833333 30.215,53.2216667 30.325,52.085 C30.5083333,50.4716667 30.985,47.0066667 31.755,41.69 C32.7816667,34.5766667 33.405,30.1216667 33.625,28.325 L30.215,27.005 L30.6,25.08 L38.74,23.815 L40.005,24.42 L36.32,50.105 L36.265,50.655 Z M37.805,17.985 C36.9616667,17.985 36.2375,17.6733333 35.6325,17.05 C35.0275,16.4266667 34.725,15.675 34.725,14.795 C34.725,13.6583333 35.1191667,12.6866667 35.9075,11.88 C36.6958333,11.0733333 37.6216667,10.67 38.685,10.67 C39.675,10.67 40.445,10.9725 40.995,11.5775 C41.545,12.1825 41.82,12.925 41.82,13.805 C41.7833333,14.9783333 41.3983333,15.9683333 40.665,16.775 C39.9316667,17.5816667 38.9783333,17.985 37.805,17.985 Z" id="Shape" fill="#FFFFFF"></path>
    </g>
</svg>