<?xml version="1.0" encoding="UTF-8"?>
<svg width="24px" height="24px" viewBox="0 0 72 72" version="1.1" xmlns="http://www.w3.org/2000/svg" xmlns:xlink="http://www.w3.org/1999/xlink">
    <title>Filled / Page / Text</title>
    <g id="Filled-/-Page-/-Text" stroke="none" fill="none" fill-rule="nonzero">
        <path d="M43.3181152,53.2133789 C43.8015137,53.2133789 44.0432129,53.813151 44.0432129,55.0126953 C44.0432129,55.7825521 43.9044596,56.3062337 43.6269531,56.5837402 C43.3494466,56.8612467 43.1211751,57 42.9421387,57 L28.6818848,57 C28.2521973,57 28.0373535,56.4897461 28.0373535,55.4692383 C28.0373535,54.5561523 28.2790527,53.866862 28.7624512,53.4013672 C28.9056803,53.258138 29.1921387,53.1865234 29.6218262,53.1865234 L29.7023926,53.1865234 C29.7740072,53.2044271 29.8545736,53.2133789 29.9440918,53.2133789 C30.3558757,53.2133789 30.7766113,53.1865234 31.2062988,53.1328125 C31.7255046,53.0970052 32.1283366,53.0343424 32.4147949,52.9448242 C32.8981934,52.8015951 33.1398926,52.5061849 33.1398926,52.0585938 L33.1398926,20.7182617 L24.1433105,20.7182617 L22.9616699,24.6928711 C22.8005371,25.1583659 22.352946,25.3911133 21.6188965,25.3911133 C20.7237142,25.3732096 20.0433757,25.0957031 19.5778809,24.5585938 C19.4346517,24.3795573 19.3630371,24.2005208 19.3630371,24.0214844 L19.3630371,23.9140625 L20.3835449,16.5825195 L51.5627441,16.5825195 L52.583252,23.9140625 L52.583252,24.0214844 C52.583252,24.6660156 52.0909017,25.0957031 51.1062012,25.3105469 C50.8913574,25.3642578 50.6675618,25.3911133 50.4348145,25.3911133 L50.2736816,25.3911133 C49.5754395,25.3911133 49.145752,25.1583659 48.9846191,24.6928711 L47.8029785,20.7182617 L38.8063965,20.7182617 L38.8063965,53.2133789 L43.3181152,53.2133789 Z" id="Path" fill="#FFFFFF"></path>
    </g>
</svg>